<svg preserveAspectRatio="true" viewBox="0 0 787 880" fill="none" xmlns="http://www.w3.org/2000/svg">
<path fill-rule="evenodd" clip-rule="evenodd" d="M18.5 258C27.0604 258 34 251.06 34 242.5C34 233.94 27.0604 227 18.5 227C9.93959 227 3 233.94 3 242.5C3 251.06 9.93959 258 18.5 258ZM18.4999 251.566C23.5069 251.566 27.5659 247.507 27.5659 242.5C27.5659 237.493 23.5069 233.434 18.4999 233.434C13.4928 233.434 9.43383 237.493 9.43383 242.5C9.43383 247.507 13.4928 251.566 18.4999 251.566Z" fill="#9C89FF"/>
<path fill-rule="evenodd" clip-rule="evenodd" d="M369.5 880C378.06 880 385 873.06 385 864.5C385 855.94 378.06 849 369.5 849C360.94 849 354 855.94 354 864.5C354 873.06 360.94 880 369.5 880ZM369.5 873.566C374.507 873.566 378.566 869.507 378.566 864.5C378.566 859.493 374.507 855.434 369.5 855.434C364.493 855.434 360.434 859.493 360.434 864.5C360.434 869.507 364.493 873.566 369.5 873.566Z" fill="#9C89FF"/>
<path fill-rule="evenodd" clip-rule="evenodd" d="M672 40C683.046 40 692 31.0457 692 20C692 8.9543 683.046 0 672 0C660.954 0 652 8.9543 652 20C652 31.0457 660.954 40 672 40ZM672 31.6981C678.46 31.6981 683.698 26.4607 683.698 20C683.698 13.5393 678.46 8.30188 672 8.30188C665.539 8.30188 660.302 13.5393 660.302 20C660.302 26.4607 665.539 31.6981 672 31.6981Z" fill="#9C89FF"/>
<rect x="11.8599" y="773.409" width="11.2501" height="29.4213" rx="5.62505" transform="rotate(23.7718 11.8599 773.409)" fill="#9C89FF"/>
<rect x="730.629" y="754.324" width="11.2501" height="60.9344" rx="5.62505" transform="rotate(-114.294 730.629 754.324)" fill="#9C89FF"/>
<rect x="375" y="40.3165" width="11.2501" height="54.8778" rx="5.62505" transform="rotate(-34.157 375 40.3165)" fill="#9C89FF"/>
</svg>
