<svg preserveAspectRatio="true" viewBox="0 0 1533 524" fill="none" xmlns="http://www.w3.org/2000/svg">
<path fill-rule="evenodd" clip-rule="evenodd" d="M98.5 210C109.27 210 118 201.27 118 190.5C118 179.73 109.27 171 98.5 171C87.7304 171 79 179.73 79 190.5C79 201.27 87.7304 210 98.5 210ZM98.4998 201.906C104.799 201.906 109.905 196.799 109.905 190.5C109.905 184.201 104.799 179.094 98.4998 179.094C92.2007 179.094 87.0942 184.201 87.0942 190.5C87.0942 196.799 92.2007 201.906 98.4998 201.906Z" fill="#323232"/>
<path fill-rule="evenodd" clip-rule="evenodd" d="M1403.5 49C1417.03 49 1428 38.031 1428 24.5C1428 10.969 1417.03 0 1403.5 0C1389.97 0 1379 10.969 1379 24.5C1379 38.031 1389.97 49 1403.5 49ZM1403.5 38.8304C1411.41 38.8304 1417.83 32.4145 1417.83 24.5002C1417.83 16.5858 1411.41 10.17 1403.5 10.17C1395.58 10.17 1389.17 16.5858 1389.17 24.5002C1389.17 32.4145 1395.58 38.8304 1403.5 38.8304Z" fill="#323232"/>
<path fill-rule="evenodd" clip-rule="evenodd" d="M996 496C1003.73 496 1010 489.732 1010 482C1010 474.268 1003.73 468 996 468C988.268 468 982 474.268 982 482C982 489.732 988.268 496 996 496ZM996 490.189C1000.52 490.189 1004.19 486.522 1004.19 482C1004.19 477.477 1000.52 473.811 996 473.811C991.477 473.811 987.811 477.477 987.811 482C987.811 486.522 991.477 490.189 996 490.189Z" fill="#323232"/>
<rect x="16.5679" y="468" width="11.2501" height="55" rx="5.62505" transform="rotate(17.5316 16.5679 468)" fill="#323232"/>
<rect x="418.144" y="29.5039" width="11.2501" height="73.2957" rx="5.62505" transform="rotate(-8.72161 418.144 29.5039)" fill="#323232"/>
<rect x="1526.99" y="381" width="11.2501" height="34.2172" rx="5.62505" transform="rotate(57.9116 1526.99 381)" fill="#323232"/>
</svg>
