<svg preserveAspectRatio="true" viewBox="0 0 1463 238" fill="none" xmlns="http://www.w3.org/2000/svg">
    <path fill-rule="evenodd" clip-rule="evenodd" d="M53 80C64.598 80 74 70.598 74 59C74 47.402 64.598 38 53 38C41.402 38 32 47.402 32 59C32 70.598 41.402 80 53 80ZM53 71.283C59.7837 71.283 65.283 65.7837 65.283 59C65.283 52.2163 59.7837 46.717 53 46.717C46.2163 46.717 40.717 52.2163 40.717 59C40.717 65.7837 46.2163 71.283 53 71.283Z" fill="#D9D9D9"/>
    <path fill-rule="evenodd" clip-rule="evenodd" d="M808.5 23C814.851 23 820 17.8513 820 11.5C820 5.14873 814.851 0 808.5 0C802.149 0 797 5.14873 797 11.5C797 17.8513 802.149 23 808.5 23ZM808.5 18.2264C812.215 18.2264 815.226 15.2149 815.226 11.5C815.226 7.78514 812.215 4.77362 808.5 4.77362C804.785 4.77362 801.773 7.78514 801.773 11.5C801.773 15.2149 804.785 18.2264 808.5 18.2264Z" fill="#D9D9D9"/>
    <path fill-rule="evenodd" clip-rule="evenodd" d="M1309.5 54C1318.61 54 1326 46.6127 1326 37.5C1326 28.3873 1318.61 21 1309.5 21C1300.39 21 1293 28.3873 1293 37.5C1293 46.6127 1300.39 54 1309.5 54ZM1309.5 47.1509C1314.83 47.1509 1319.15 42.83 1319.15 37.5C1319.15 32.1699 1314.83 27.849 1309.5 27.849C1304.17 27.849 1299.85 32.1699 1299.85 37.5C1299.85 42.83 1304.17 47.1509 1309.5 47.1509Z" fill="#D9D9D9"/>
    <rect y="170.345" width="11.2501" height="55" rx="5.62505" transform="rotate(-22.7181 0 170.345)" fill="#D9D9D9"/>
    <rect x="340.565" y="225.921" width="11.2501" height="39.3509" rx="5.62505" transform="rotate(-154.804 340.565 225.921)" fill="#D9D9D9"/>
    <rect x="1451.48" y="206" width="11.2501" height="29.9129" rx="5.62505" transform="rotate(10.5509 1451.48 206)" fill="#D9D9D9"/>
</svg>
